<?xml version="1.0" encoding="UTF-8"?>
<svg id="Layer_1" data-name="Layer 1" xmlns="http://www.w3.org/2000/svg" viewBox="0 0 985.25 233">
  <defs>
    <style>
      .cls-1 {
        fill: #000;
      }

      .cls-1, .cls-2, .cls-3, .cls-4 {
        stroke-width: 0px;
      }

      .cls-2 {
        fill: #1e66d1;
      }

      .cls-3 {
        fill: #1444a3;
      }

      .cls-4 {
        fill: #2992fc;
      }
    </style>
  </defs>
  <g>
    <path class="cls-1" d="M257.17,176.86c-11.82,0-21.67-2.57-29.56-7.7-7.9-5.13-13.5-12.12-16.81-20.95l22.86-13.25c4.64,10.71,12.75,16.07,24.35,16.07,10.49,0,15.73-3.15,15.73-9.44,0-3.42-1.68-6.1-5.05-8.03-3.37-1.93-9.69-4.17-18.96-6.71-4.86-1.33-9.11-2.82-12.75-4.47-3.64-1.66-7.2-3.84-10.68-6.54-3.48-2.7-6.13-6.1-7.95-10.19-1.82-4.08-2.73-8.78-2.73-14.08,0-10.71,3.84-19.27,11.51-25.67,7.67-6.4,16.81-9.61,27.41-9.61,9.5,0,17.89,2.24,25.18,6.71,7.29,4.47,13.03,10.96,17.23,19.46l-22.36,13.08c-2.1-4.41-4.69-7.76-7.78-10.02-3.09-2.26-7.18-3.4-12.26-3.4-3.97,0-7.04.86-9.19,2.57-2.15,1.71-3.23,3.78-3.23,6.21,0,2.87,1.35,5.36,4.06,7.45,2.7,2.1,8.31,4.42,16.81,6.96,4.64,1.44,8.22,2.6,10.77,3.48,2.54.88,5.77,2.35,9.69,4.39,3.92,2.04,6.9,4.2,8.94,6.46,2.04,2.26,3.86,5.25,5.47,8.94,1.6,3.7,2.4,7.92,2.4,12.67,0,11.04-3.97,19.74-11.92,26.09-7.95,6.35-18.33,9.52-31.14,9.52Z"/>
    <path class="cls-1" d="M361.18,89.41c8.83,0,16.2,3.04,22.11,9.11,5.91,6.07,8.86,14.47,8.86,25.18v50.85h-24.84v-47.2c0-4.86-1.35-8.58-4.06-11.18-2.71-2.59-6.16-3.89-10.35-3.89-4.75,0-8.5,1.44-11.26,4.31-2.76,2.87-4.14,7.12-4.14,12.75v45.22h-24.84V58.6h24.84v40.91c4.97-6.73,12.86-10.1,23.68-10.1Z"/>
    <path class="cls-1" d="M480.1,164.19c-8.5,8.45-18.88,12.67-31.14,12.67s-22.64-4.22-31.14-12.67c-8.5-8.45-12.75-18.8-12.75-31.05s4.25-22.61,12.75-31.05c8.5-8.45,18.88-12.67,31.14-12.67s22.63,4.22,31.14,12.67c8.5,8.45,12.75,18.8,12.75,31.05s-4.25,22.61-12.75,31.05ZM435.38,147.21c3.64,3.64,8.17,5.47,13.58,5.47s9.94-1.82,13.58-5.47c3.64-3.64,5.47-8.34,5.47-14.08s-1.82-10.43-5.47-14.08c-3.64-3.64-8.17-5.47-13.58-5.47s-9.94,1.82-13.58,5.47c-3.64,3.64-5.47,8.34-5.47,14.08s1.82,10.43,5.47,14.08Z"/>
    <path class="cls-1" d="M556.45,89.41c10.93,0,20.26,4.22,27.99,12.67,7.73,8.45,11.59,18.8,11.59,31.05s-3.87,22.61-11.59,31.05c-7.73,8.45-17.06,12.67-27.99,12.67s-18.83-3.37-24.68-10.1v40.91h-24.84v-115.94h24.84v7.78c5.85-6.73,14.08-10.1,24.68-10.1ZM537.32,147.87c3.7,3.64,8.42,5.47,14.16,5.47s10.46-1.82,14.16-5.47c3.7-3.64,5.55-8.56,5.55-14.74s-1.85-11.1-5.55-14.74c-3.7-3.64-8.42-5.47-14.16-5.47s-10.46,1.82-14.16,5.47c-3.7,3.64-5.55,8.56-5.55,14.74s1.85,11.1,5.55,14.74Z"/>
    <path class="cls-1" d="M632.3,143.07c2.87,7.73,9.49,11.59,19.87,11.59,6.73,0,12.03-2.1,15.9-6.29l19.88,11.43c-8.17,11.37-20.21,17.06-36.11,17.06-13.91,0-25.04-4.14-33.37-12.42-8.34-8.28-12.5-18.72-12.5-31.3s4.11-22.88,12.34-31.22c8.22-8.34,18.8-12.51,31.72-12.51,12.03,0,22.05,4.17,30.06,12.51,8,8.34,12.01,18.74,12.01,31.22,0,3.54-.33,6.85-.99,9.94h-58.8ZM631.81,124.52h35.61c-2.43-8.72-8.28-13.08-17.56-13.08s-15.63,4.36-18.05,13.08Z"/>
    <path class="cls-1" d="M731.01,106.46c1.55-5.3,4.66-9.36,9.36-12.17,4.69-2.82,9.86-4.22,15.49-4.22v28.16c-6.07-.99-11.73.03-16.98,3.06-5.25,3.04-7.87,8.31-7.87,15.82v37.43h-24.84v-82.81h24.84v14.74Z"/>
    <path class="cls-1" d="M798.26,151.35h32.96v23.19h-66.25v-16.56l31.3-43.06h-29.65v-23.19h62.94v16.56l-31.3,43.06Z"/>
    <path class="cls-1" d="M875.27,151.35h32.96v23.19h-66.25v-16.56l31.3-43.06h-29.65v-23.19h62.94v16.56l-31.3,43.06Z"/>
  </g>
  <g>
    <rect class="cls-3" x="64.07" y="60.62" width="109.11" height="109.11" rx="24.25" ry="24.25"/>
    <g>
      <path class="cls-4" d="M0,24.25v66.68c0,10,8.18,18.18,18.18,18.18h0V42.43c0-13.39,10.86-24.25,24.25-24.25h66.68c0-10-8.18-18.18-18.18-18.18H24.25C10.91,0,0,10.91,0,24.25Z"/>
      <path class="cls-2" d="M30.31,54.55v66.68c0,10,8.18,18.18,18.18,18.18h0v-66.68c0-13.39,10.86-24.25,24.25-24.25h66.68c0-10-8.18-18.18-18.18-18.18H54.55c-13.34,0-24.25,10.91-24.25,24.25Z"/>
    </g>
  </g>
</svg>
