<?xml version="1.0" encoding="UTF-8"?>
<svg id="Layer_1" data-name="Layer 1" xmlns="http://www.w3.org/2000/svg" viewBox="0 0 500 498.3">
  <defs>
    <style>
      .cls-1 {
        fill: #fff;
        stroke-width: 0px;
      }
    </style>
  </defs>
  <rect class="cls-1" x="137.02" y="129.63" width="233.34" height="233.34" rx="51.85" ry="51.85"/>
  <g>
    <path class="cls-1" d="M0,51.85v142.6c0,21.39,17.5,38.89,38.89,38.89h0V90.74c0-28.64,23.22-51.85,51.85-51.85h142.6c0-21.39-17.5-38.89-38.89-38.89H51.85C23.33,0,0,23.33,0,51.85Z"/>
    <path class="cls-1" d="M64.82,116.67v142.6c0,21.39,17.5,38.89,38.89,38.89h0v-142.6c0-28.64,23.22-51.85,51.85-51.85h142.6c0-21.39-17.5-38.89-38.89-38.89H116.67c-28.52,0-51.85,23.33-51.85,51.85Z"/>
  </g>
</svg>